<svg height="800" width="1300" xmlns="http://www.w3.org/2000/svg">
<title>Your Diagram Title</title>
<!-- Generated with SankeyMATIC: 1/24/2023, 2:59:56 PM -->
<rect height="800" width="1300" fill="#e01b24"></rect>
<g transform="translate(228.6686591720581,18)">
<g id="sankey_flows">
<path id="flow16" d="M473.63126 585.46666C761.9813 585.46666 761.9813 643.54016 1050.33134 643.54016" fill="none" stroke-width="123.96969" stroke="#66a61e" opacity="0.65"><title>Non-Energy use → Non-Energy use Industry: 292.8PJ</title></path>
<path id="flow4" d="M9 384.26127C264.64193 384.26127 264.64193 126.167 520.28387 126.167" fill="none" stroke-width="108.98155" stroke="#e6ab02" opacity="0.65"><title>Natural Gas → Industry: 257.4PJ</title></path>
<path id="flow9" d="M529.28387 97.50325C789.8076 97.50325 789.8076 80.56425 1050.33134 80.56425" fill="none" stroke-width="72.99308" stroke="#1b9e77" opacity="0.65"><title>Industry → Chemical and Petrochemical: 172.4PJ</title></path>
<path id="flow3" d="M9 227.14384C236.81563 227.14384 236.81563 559.04689 464.63126 559.04689" fill="none" stroke-width="71.13015" stroke="#1b9e77" opacity="0.65"><title>Oil Products → Non-Energy use: 168.0PJ</title></path>
<path id="flow1" d="M9 154.27778C232.42201 154.27778 232.42201 299.29879 455.84401 299.29879" fill="none" stroke-width="69.35189" stroke="#1b9e77" opacity="0.65"><title>Oil Products → Transport: 163.8PJ</title></path>
<path id="flow12" d="M464.84401 299.29879C757.58768 299.29879 757.58768 334.36604 1050.33134 334.36604" fill="none" stroke-width="69.35189" stroke="#e7298a" opacity="0.65"><title>Transport → Road: 163.8PJ</title></path>
<path id="flow5" d="M9 465.17181C236.81563 465.17181 236.81563 621.03173 464.63126 621.03173" fill="none" stroke-width="52.83954" stroke="#e6ab02" opacity="0.65"><title>Natural Gas → Non-Energy use: 124.8PJ</title></path>
<path id="flow7" d="M9 615.40986C243.65016 615.40986 243.65016 419.45612 478.30032 419.45612" fill="none" stroke-width="49.70643" stroke="#a6761d" opacity="0.65"><title>Electricity → Other: 117.4PJ</title></path>
<path id="flow10" d="M529.28387 149.9829C789.8076 149.9829 789.8076 173.04702 1050.33134 173.04702" fill="none" stroke-width="31.96623" stroke="#d95f02" opacity="0.65"><title>Industry → Non-Metallic minerals: 75.5PJ</title></path>
<path id="flow13" d="M487.30032 407.43174C768.81583 407.43174 768.81583 424.49899 1050.33134 424.49899" fill="none" stroke-width="30.90774" stroke="#66a61e" opacity="0.65"><title>Other → Residential: 73.0PJ</title></path>
<path id="flow11" d="M529.28387 181.29287C789.8076 181.29287 789.8076 244.36012 1050.33134 244.36012" fill="none" stroke-width="30.65371" stroke="#7570b3" opacity="0.65"><title>Industry → Non specified (Industry): 72.4PJ</title></path>
<path id="flow6" d="M9 582.57568C264.64193 582.57568 264.64193 188.63875 520.28387 188.63875" fill="none" stroke-width="15.96194" stroke="#a6761d" opacity="0.65"><title>Electricity → Industry: 37.7PJ</title></path>
<path id="flow0" d="M9 112.23478C264.64193 112.23478 264.64193 64.30918 520.28387 64.30918" fill="none" stroke-width="14.7341" stroke="#1b9e77" opacity="0.65"><title>Oil Products → Industry: 34.8PJ</title></path>
<path id="flow14" d="M487.30032 429.23651C768.81583 429.23651 768.81583 486.30689 1050.33134 486.30689" fill="none" stroke-width="12.70181" stroke="#e6ab02" opacity="0.65"><title>Other → Commerce and Public service: 30.0PJ</title></path>
<path id="flow15" d="M487.30032 440.03305C768.81583 440.03305 768.81583 537.10655 1050.33134 537.10655" fill="none" stroke-width="8.89127" stroke="#a6761d" opacity="0.65"><title>Other → Non-specified (Other): 21.0PJ</title></path>
<path id="flow8" d="M529.28387 58.97442C789.8076 58.97442 789.8076 2.03229 1050.33134 2.03229" fill="none" stroke-width="4.06458" stroke="#666666" opacity="0.65"><title>Industry → Iron and Steel: 9.6PJ</title></path>
<path id="flow2" d="M9 190.26625C243.65016 190.26625 243.65016 393.29039 478.30032 393.29039" fill="none" stroke-width="2.62504" stroke="#1b9e77" opacity="0.65"><title>Oil Products → Other: 6.2PJ</title></path>
<path id="flow17" d="M9 695.35088C243.65016 695.35088 243.65016 444.39401 478.30032 444.39401" fill="none" stroke-width="1" stroke="#666666" opacity="0.65"><title>Bio fuels and Waste → Other: 0.4PJ</title></path>
</g>
<g id="sankey_nodes">
<g class="node">
<rect id="r0" class="for_r0" x="0" y="124.92618" height="157.84119" width="9" fill="#1b9e77" fill-opacity="1" transform="translate(0,-20.05845)"><title>Oil Products:
372.8PJ</title></rect>
</g>
<g class="node">
<rect id="r1" class="for_r1" x="525.16567" y="113.94213" height="139.67759" width="9" fill="#d95f02" fill-opacity="1" transform="translate(-4.8818,-57)"><title>Industry:
329.9PJ</title></rect>
</g>
<g class="node">
<rect id="r2" class="for_r2" x="525.16567" y="293.62285" height="69.35189" width="9" fill="#7570b3" fill-opacity="1" transform="translate(-69.32166,-29)"><title>Transport:
163.8PJ</title></rect>
</g>
<g class="node">
<rect id="r3" class="for_r3" x="525.16567" y="402.97786" height="52.50082" width="9" fill="#e7298a" fill-opacity="1" transform="translate(-46.86535,-11)"><title>Other:
124.0PJ</title></rect>
</g>
<g class="node">
<rect id="r4" class="for_r4" x="525.16567" y="495.48181" height="123.96969" width="9" fill="#66a61e" fill-opacity="1" transform="translate(-60.53441,28)"><title>Non-Energy use:
292.8PJ</title></rect>
</g>
<g class="node">
<rect id="r5" class="for_r5" x="0" y="322.77049" height="161.82109" width="9" fill="#e6ab02" fill-opacity="1" transform="translate(0,7)"><title>Natural Gas:
382.2PJ</title></rect>
</g>
<g class="node">
<rect id="r6" class="for_r6" x="0" y="524.5947" height="65.66837" width="9" fill="#a6761d" fill-opacity="1" transform="translate(0,50)"><title>Electricity:
155.1PJ</title></rect>
</g>
<g class="node">
<rect id="r7" class="for_r7" x="1050.33134" y="0" height="4.06458" width="9" fill="#666666" fill-opacity="1"><title>Iron and Steel:
9.6PJ</title></rect>
</g>
<g class="node">
<rect id="r8" class="for_r8" x="1050.33134" y="44.0677" height="72.99308" width="9" fill="#1b9e77" fill-opacity="1"><title>Chemical and Petrochemical:
172.4PJ</title></rect>
</g>
<g class="node">
<rect id="r9" class="for_r9" x="1050.33134" y="157.06391" height="31.96623" width="9" fill="#d95f02" fill-opacity="1"><title>Non-Metallic minerals:
75.5PJ</title></rect>
</g>
<g class="node">
<rect id="r10" class="for_r10" x="1050.33134" y="229.03326" height="30.65371" width="9" fill="#7570b3" fill-opacity="1"><title>Non specified (Industry):
72.4PJ</title></rect>
</g>
<g class="node">
<rect id="r11" class="for_r11" x="1050.33134" y="299.69009" height="69.35189" width="9" fill="#e7298a" fill-opacity="1"><title>Road:
163.8PJ</title></rect>
</g>
<g class="node">
<rect id="r12" class="for_r12" x="1050.33134" y="409.04511" height="30.90774" width="9" fill="#66a61e" fill-opacity="1"><title>Residential:
73.0PJ</title></rect>
</g>
<g class="node">
<rect id="r13" class="for_r13" x="1050.33134" y="479.95598" height="12.70181" width="9" fill="#e6ab02" fill-opacity="1"><title>Commerce and Public service:
30.0PJ</title></rect>
</g>
<g class="node">
<rect id="r14" class="for_r14" x="1050.33134" y="532.66092" height="8.89127" width="9" fill="#a6761d" fill-opacity="1"><title>Non-specified (Other):
21.0PJ</title></rect>
</g>
<g class="node">
<rect id="r15" class="for_r15" x="1050.33134" y="581.55531" height="123.96969" width="9" fill="#66a61e" fill-opacity="1"><title>Non-Energy use Industry:
292.8PJ</title></rect>
</g>
<g class="node">
<rect id="r16" class="for_r16" x="0" y="630.2662" height="1" width="9" fill="#666666" fill-opacity="1" transform="translate(0,65)"><title>Bio fuels and Waste:
0.4PJ</title></rect>
</g>
</g>
<g id="sankey_labels" font-family="sans-serif" font-size="16px" font-weight="700" fill="#000000">
<rect id="label0_bg" class="for_r0" x="-175.78533" y="188.80927" width="173.58499" height="30.4" rx="4" fill="#fff" fill-opacity="0.55" stroke="none" stroke-width="0" stroke-opacity="0" transform="translate(0,-20.05845)"></rect>
<text id="label0" class="for_r0" text-anchor="end" x="-7.70117" y="203.84677" dy="8.049999999999999" transform="translate(0,-20.05845)">Oil Products: 372.8PJ</text>
<rect id="label1_bg" class="for_r1" x="378.06365" y="168.74342" width="144.90166" height="30.4" rx="4" fill="#fff" fill-opacity="0.55" stroke="none" stroke-width="0" stroke-opacity="0" transform="translate(-4.8818,-57)"></rect>
<text id="label1" class="for_r1" text-anchor="end" x="517.4645" y="183.78092" dy="8.049999999999999" transform="translate(-4.8818,-57)">Industry: 329.9PJ</text>
<rect id="label2_bg" class="for_r2" x="368.91366" y="313.26129" width="154.05167" height="30.4" rx="4" fill="#fff" fill-opacity="0.55" stroke="none" stroke-width="0" stroke-opacity="0" transform="translate(-69.32166,-29)"></rect>
<text id="label2" class="for_r2" text-anchor="end" x="517.4645" y="328.29879" dy="8.049999999999999" transform="translate(-69.32166,-29)">Transport: 163.8PJ</text>
<rect id="label3_bg" class="for_r3" x="399.79699" y="414.19076" width="123.16833" height="30.4" rx="4" fill="#fff" fill-opacity="0.55" stroke="none" stroke-width="0" stroke-opacity="0" transform="translate(-46.86535,-11)"></rect>
<text id="label3" class="for_r3" text-anchor="end" x="517.4645" y="429.22828" dy="8.049999999999999" transform="translate(-46.86535,-11)">Other: 124.0PJ</text>
<rect id="label4_bg" class="for_r4" x="320.79699" y="542.42916" width="202.16834" height="30.4" rx="4" fill="#fff" fill-opacity="0.55" stroke="none" stroke-width="0" stroke-opacity="0" transform="translate(-60.53441,28)"></rect>
<text id="label4" class="for_r4" text-anchor="end" x="517.4645" y="557.46666" dy="8.049999999999999" transform="translate(-60.53441,28)">Non-Energy use: 292.8PJ</text>
<rect id="label5_bg" class="for_r5" x="-173.45201" y="388.64352" width="171.25167" height="30.4" rx="4" fill="#fff" fill-opacity="0.55" stroke="none" stroke-width="0" stroke-opacity="0" transform="translate(0,7)"></rect>
<text id="label5" class="for_r5" text-anchor="end" x="-7.70117" y="403.68104" dy="8.049999999999999" transform="translate(0,7)">Natural Gas: 382.2PJ</text>
<rect id="label6_bg" class="for_r6" x="-158.21867" y="542.39138" width="156.01833" height="30.4" rx="4" fill="#fff" fill-opacity="0.55" stroke="none" stroke-width="0" stroke-opacity="0" transform="translate(0,50)"></rect>
<text id="label6" class="for_r6" text-anchor="end" x="-7.70117" y="557.42889" dy="8.049999999999999" transform="translate(0,50)">Electricity: 155.1PJ</text>
<rect id="label7_bg" class="for_r7" x="878.39596" y="-13.00521" width="169.735" height="30.4" rx="4" fill="#fff" fill-opacity="0.55" stroke="none" stroke-width="0" stroke-opacity="0"></rect>
<text id="label7" class="for_r7" text-anchor="end" x="1042.63017" y="2.03229" dy="8.049999999999999">Iron and Steel: 9.6PJ</text>
<rect id="label8_bg" class="for_r8" x="744.84597" y="65.52675" width="303.28499" height="30.4" rx="4" fill="#fff" fill-opacity="0.55" stroke="none" stroke-width="0" stroke-opacity="0"></rect>
<text id="label8" class="for_r8" text-anchor="end" x="1042.63017" y="80.56425" dy="8.049999999999999">Chemical and Petrochemical: 172.4PJ</text>
<rect id="label9_bg" class="for_r9" x="804.26266" y="158.00953" width="243.86834" height="30.4" rx="4" fill="#fff" fill-opacity="0.55" stroke="none" stroke-width="0" stroke-opacity="0"></rect>
<text id="label9" class="for_r9" text-anchor="end" x="1042.63017" y="173.04702" dy="8.049999999999999">Non-Metallic minerals: 75.5PJ</text>
<rect id="label10_bg" class="for_r10" x="788.51266" y="229.32263" width="259.61834" height="30.4" rx="4" fill="#fff" fill-opacity="0.55" stroke="none" stroke-width="0" stroke-opacity="0"></rect>
<text id="label10" class="for_r10" text-anchor="end" x="1042.63017" y="244.36012" dy="8.049999999999999">Non specified (Industry): 72.4PJ</text>
<rect id="label11_bg" class="for_r11" x="931.61263" y="319.32852" width="116.51834" height="30.4" rx="4" fill="#fff" fill-opacity="0.55" stroke="none" stroke-width="0" stroke-opacity="0"></rect>
<text id="label11" class="for_r11" text-anchor="end" x="1042.63017" y="334.36604" dy="8.049999999999999">Road: 163.8PJ</text>
<rect id="label12_bg" class="for_r12" x="891.69594" y="409.46148" width="156.435" height="30.4" rx="4" fill="#fff" fill-opacity="0.55" stroke="none" stroke-width="0" stroke-opacity="0"></rect>
<text id="label12" class="for_r12" text-anchor="end" x="1042.63017" y="424.49899" dy="8.049999999999999">Residential: 73.0PJ</text>
<rect id="label13_bg" class="for_r13" x="747.61263" y="471.26937" width="300.51833" height="30.4" rx="4" fill="#fff" fill-opacity="0.55" stroke="none" stroke-width="0" stroke-opacity="0"></rect>
<text id="label13" class="for_r13" text-anchor="end" x="1042.63017" y="486.30689" dy="8.049999999999999">Commerce and Public service: 30.0PJ</text>
<rect id="label14_bg" class="for_r14" x="809.26266" y="522.06906" width="238.86834" height="30.4" rx="4" fill="#fff" fill-opacity="0.55" stroke="none" stroke-width="0" stroke-opacity="0"></rect>
<text id="label14" class="for_r14" text-anchor="end" x="1042.63017" y="537.10655" dy="8.049999999999999">Non-specified (Other): 21.0PJ</text>
<rect id="label15_bg" class="for_r15" x="773.14596" y="628.50265" width="274.985" height="30.4" rx="4" fill="#fff" fill-opacity="0.55" stroke="none" stroke-width="0" stroke-opacity="0"></rect>
<text id="label15" class="for_r15" text-anchor="end" x="1042.63017" y="643.54016" dy="8.049999999999999">Non-Energy use Industry: 292.8PJ</text>
<rect id="label16_bg" class="for_r16" x="-216.66866" y="615.72866" width="214.46833" height="30.4" rx="4" fill="#fff" fill-opacity="0.55" stroke="none" stroke-width="0" stroke-opacity="0" transform="translate(0,65)"></rect>
<text id="label16" class="for_r16" text-anchor="end" x="-7.70117" y="630.7662" dy="8.049999999999999" transform="translate(0,65)">Bio fuels and Waste: 0.4PJ</text>
</g>
</g></svg>